# xmcd
#
# Track frame offsets: 
#        150
#        15247
#        28715
#        44254
#        61322
#        74039
#        90304
#        107449
#        120917
#        134318
#        147852
#        162356
#        175823
#        188252
#        204034
#        219704
#        233171
#        248711
#        260107
#        275128
#        288596
#        305166
#
# Disc length: 4327 seconds
#
# Revision: 3
# Processed by: cddbd v1.5.2PL0 Copyright (c) Steve Scherf et al.
# Submitted via: ExactAudioCopyFreeDBPlugin 1.0
#
DISCID=3910e516
DTITLE=Various Artist - The Sound Of Dubstep
DYEAR=2010
DGENRE=Dubstep
TTITLE0=TC - Where's My Money (Caspa Remix)
TTITLE1=Breakage - Newham Generals - David Rodigan - Hard
TTITLE2=Simian Mobile Disco - Cruel Intentions (Joker Remix)
TTITLE3=MJ Cole - Sincere (Nero Remix)
TTITLE4=Dizzee Rascal - Armand Van Helden - Bonkers (Doorly Remix)
TTITLE5=The One Hundred - Break Me Down (Tek-One Remix)
TTITLE6=Basement Jaxx - Raindrops (Doorly Remix)
TTITLE7=Kid Cudi Vs Crookers - Day 'N' Nite (Brackles Remix)
TTITLE8=The Qemists - Wiley - Dem Na Like Me (Subscape Dub)
TTITLE9=Drumsound and Bassline Smith - R U Ready (Dubstep Mix)
TTITLE10=DJ Fresh - Koko - Stamina MC - Hypercaine (Nero Remix)
TTITLE11=Bassnectar - Bass Head
TTITLE12=Coki - Spongebob
TTITLE13=Chasing Shadows - Amirah
TTITLE14=Unicorn Kid - Dreamcatcher
TTITLE15=Tek-One - Broken String
TTITLE16=Artwork - Red
TTITLE17=Joy Orbison - Hyph Mngo
TTITLE18=Digital Mystikz - Spen G - Anti War Dub
TTITLE19=Geiom - Marita - Reminissin'
TTITLE20=Shackleton - Blood On My Hands
TTITLE21=TRG - Broken Heart (Martyn's DCM Remix)
EXTD=
EXTT0=
EXTT1=
EXTT2=
EXTT3=
EXTT4=
EXTT5=
EXTT6=
EXTT7=
EXTT8=
EXTT9=
EXTT10=
EXTT11=
EXTT12=
EXTT13=
EXTT14=
EXTT15=
EXTT16=
EXTT17=
EXTT18=
EXTT19=
EXTT20=
EXTT21=
PLAYORDER=
